<svg xmlns="http://www.w3.org/2000/svg" width="101" viewBox="0 0 405 85">
			 		<path style="fill: #fff;" d="M2.419,0.917L29.69,41.246,0.546,83.1H25.593l17.088-25.44L60.121,83.1H85.753L56.375,40.191,83.412,0.917H58.131l-15.45,23.33L27.349,0.917H2.419Zm96.55,0v17.7h24.345V83.1h21.418V18.619h24.579V0.917H98.969ZM263.172,83.1L246.083,56.252c9.481-4.924,14.631-14.068,14.631-26.5,0-18.289-12.407-28.84-34.177-28.84H189.669V83.1h21.419V60.355h15.918L238.944,83.1h24.228ZM211.088,18.033h15.566c8.662,0,13.694,4.338,13.694,12.427,0,8.324-5.032,12.779-13.694,12.779H211.088V18.033ZM346.38,83.1H369.2L334.793,0.917h-22L277.559,83.1h22L305.3,68.562h35.464Zm-34.645-30.95L323.206,22.84l11.236,29.309H311.735Zm82.857,11.606c-5.853,0-9.949,4.1-9.949,10.082s4.1,10.2,9.949,10.2,10.065-4.221,10.065-10.2A9.655,9.655,0,0,0,394.592,63.755Z"/>
				</svg>